<svg width="25" height="25" viewBox="0 0 25 25" fill="none" xmlns="http://www.w3.org/2000/svg">
<path d="M18.4871 8.12237C18.4871 6.53107 17.8549 5.00495 16.7297 3.87973C15.6045 2.75451 14.0784 2.12237 12.4871 2.12237C10.8958 2.12237 9.36965 2.75451 8.24443 3.87973C7.11921 5.00495 6.48707 6.53107 6.48707 8.12237C6.48707 15.1224 3.48707 17.1224 3.48707 17.1224H21.4871C21.4871 17.1224 18.4871 15.1224 18.4871 8.12237Z" stroke="white" stroke-linecap="round" stroke-linejoin="round"/>
<path d="M14.2171 21.1224C14.0413 21.4255 13.7889 21.677 13.4853 21.8519C13.1817 22.0268 12.8375 22.1188 12.4871 22.1188C12.1367 22.1188 11.7925 22.0268 11.4888 21.8519C11.1852 21.677 10.9329 21.4255 10.7571 21.1224" stroke="white" stroke-linecap="round" stroke-linejoin="round"/>
</svg>
