<svg width="20" height="20" viewBox="0 0 20 20" fill="none" xmlns="http://www.w3.org/2000/svg">
<path d="M12.4735 1.85697L12.4735 1.85699L19.3486 7.79387C19.3486 7.79388 19.3486 7.79389 19.3486 7.7939C19.5505 7.96831 19.5504 8.28187 19.3486 8.45613L12.4735 14.3936L12.4735 14.3936C12.1906 14.6379 11.75 14.4354 11.75 14.0625V10.6283V10.1211L11.2428 10.1284C9.71257 10.1504 8.3745 10.2618 7.25713 10.5145C6.14163 10.7668 5.20903 11.1679 4.52628 11.7968C3.11214 13.0994 2.97534 15.1567 3.87474 18.0331L4.35195 17.8839L3.87474 18.0331C3.88929 18.0796 3.88362 18.1087 3.87522 18.1294C3.86498 18.1547 3.84242 18.1852 3.8036 18.2106C3.7237 18.2629 3.62802 18.2645 3.54931 18.2073L3.2552 18.6116L3.5493 18.2073C1.93896 17.036 0.5 14.7965 0.5 12.5909C0.5 11.175 0.795638 10.0734 1.30591 9.2099C1.8155 8.34758 2.55822 7.69041 3.50477 7.19261C5.42028 6.1852 8.12866 5.85092 11.2557 5.81512L11.75 5.80946V5.31516V2.18809C11.75 1.81526 12.1907 1.61279 12.4735 1.85697Z" stroke="black"/>
</svg>
