<svg width="121" height="61" viewBox="0 0 121 61" fill="none" xmlns="http://www.w3.org/2000/svg">
<path d="M39.5232 22.3077C39.1205 20.8086 37.9346 19.6227 36.4355 19.22C33.7282 18.4816 22.8318 18.4816 22.8318 18.4816C22.8318 18.4816 11.9353 18.504 9.228 19.2423C7.7289 19.6451 6.54305 20.8309 6.1403 22.33C5.42432 25.0374 5.42432 30.6981 5.42432 30.6981C5.42432 30.6981 5.42432 36.3589 6.16268 39.0886C6.56542 40.5877 7.75127 41.7736 9.25037 42.1763C11.9577 42.9147 22.8541 42.9147 22.8541 42.9147C22.8541 42.9147 33.7506 42.9147 36.4579 42.1763C37.957 41.7736 39.1428 40.5877 39.5456 39.0886C40.2839 36.3813 40.2839 30.6981 40.2839 30.6981C40.2839 30.6981 40.2616 25.0374 39.5232 22.3077Z" fill="#FF0000"/>
<path d="M28.403 30.6981L19.3637 25.4625V35.9338L28.403 30.6981Z" fill="white"/>
<path d="M55.9909 40.6996C55.2973 40.2297 54.8051 39.5137 54.5142 38.5293C54.2233 37.5448 54.0891 36.247 54.0891 34.6137V32.3986C54.0891 30.7653 54.2457 29.4228 54.5813 28.4383C54.917 27.4315 55.4316 26.7155 56.1476 26.268C56.8635 25.8205 57.7809 25.5744 58.922 25.5744C60.0407 25.5744 60.9581 25.7981 61.6293 26.268C62.3006 26.7378 62.8152 27.4538 63.1284 28.4383C63.4417 29.4228 63.5983 30.7429 63.5983 32.3762V34.5913C63.5983 36.2247 63.4417 37.5224 63.1284 38.5069C62.8152 39.4914 62.3229 40.2073 61.6293 40.6772C60.9357 41.1247 59.996 41.3708 58.8325 41.3708C57.6243 41.3932 56.6845 41.1471 55.9909 40.6996V40.6996ZM59.8617 38.3055C60.0631 37.8133 60.1526 36.9854 60.1526 35.8667V31.1009C60.1526 30.0045 60.0631 29.199 59.8617 28.7068C59.6604 28.1922 59.3247 27.9461 58.8549 27.9461C58.385 27.9461 58.0718 28.1922 57.8704 28.7068C57.669 29.2214 57.5795 30.0045 57.5795 31.1009V35.8667C57.5795 36.9854 57.669 37.8133 57.848 38.3055C58.027 38.7977 58.3626 39.0439 58.8549 39.0439C59.3247 39.0439 59.6604 38.7977 59.8617 38.3055V38.3055ZM108.907 34.6584V35.4416L108.996 37.6566C109.063 38.1489 109.175 38.5069 109.354 38.7306C109.533 38.9544 109.824 39.0662 110.205 39.0662C110.719 39.0662 111.077 38.8649 111.256 38.4621C111.458 38.0594 111.547 37.3881 111.569 36.4708L114.545 36.6498C114.568 36.784 114.568 36.963 114.568 37.1868C114.568 38.5964 114.187 39.648 113.404 40.3416C112.621 41.0352 111.547 41.3932 110.137 41.3932C108.437 41.3932 107.251 40.8562 106.58 39.8046C105.909 38.753 105.551 37.0973 105.551 34.8822V32.1749C105.551 29.8927 105.909 28.2146 106.602 27.163C107.318 26.1113 108.526 25.5744 110.227 25.5744C111.413 25.5744 112.308 25.7981 112.934 26.2232C113.561 26.6483 114.008 27.3196 114.277 28.2369C114.545 29.1543 114.657 30.4073 114.657 32.0182V34.6361H108.907V34.6584ZM109.354 28.2146C109.175 28.4383 109.063 28.7739 108.996 29.2662C108.929 29.7584 108.907 30.4968 108.907 31.5036V32.6H111.413V31.5036C111.413 30.5191 111.39 29.7808 111.323 29.2662C111.256 28.7516 111.144 28.3936 110.965 28.1922C110.786 27.9908 110.518 27.8789 110.16 27.8789C109.779 27.9013 109.511 28.0132 109.354 28.2146V28.2146ZM47.6228 34.3676L43.7073 20.2268H47.1306L48.4954 26.626C48.8534 28.2146 49.0996 29.557 49.2785 30.6534H49.368C49.4799 29.8479 49.7484 28.5278 50.1512 26.6483L51.5608 20.2268H54.9841L51.0238 34.3452V41.1247H47.6452V34.3676H47.6228Z" fill="#282828"/>
<path d="M74.6961 25.8652V41.1471H72.0112L71.7203 39.2676H71.6532C70.9148 40.6772 69.8184 41.3932 68.3641 41.3932C67.3572 41.3932 66.5965 41.0576 66.1266 40.3863C65.6344 39.7151 65.4106 38.6859 65.4106 37.2763V25.8652H68.8563V37.0749C68.8563 37.7461 68.9235 38.2384 69.0801 38.5293C69.2367 38.8201 69.4828 38.9544 69.8184 38.9544C70.1093 38.9544 70.4002 38.8649 70.6687 38.6859C70.9372 38.5069 71.1385 38.2608 71.2728 37.9923V25.8652H74.6961Z" fill="#282828"/>
<path d="M92.3497 25.8652V41.1471H89.6647L89.3738 39.2676H89.3067C88.5684 40.6772 87.472 41.3932 86.0177 41.3932C85.0108 41.3932 84.2501 41.0576 83.7802 40.3863C83.288 39.7151 83.0642 38.6859 83.0642 37.2763V25.8652H86.5099V37.0749C86.5099 37.7461 86.577 38.2384 86.7336 38.5293C86.8903 38.8201 87.1364 38.9544 87.472 38.9544C87.7629 38.9544 88.0537 38.8649 88.3222 38.6859C88.5907 38.5069 88.7921 38.2608 88.9264 37.9923V25.8652H92.3497Z" fill="#282828"/>
<path d="M84.0487 23.0013H80.6254V41.1471H77.2692V23.0013H73.8459V20.2268H84.0263V23.0013H84.0487ZM103.716 28.3041C103.515 27.342 103.179 26.6483 102.709 26.2008C102.239 25.7757 101.613 25.552 100.785 25.552C100.158 25.552 99.5543 25.731 99.0173 26.089C98.4579 26.447 98.0552 26.9168 97.742 27.4986H97.7196V19.4437H94.4081V41.1247H97.2497L97.6077 39.6704H97.6748C97.9433 40.185 98.3461 40.5877 98.8607 40.901C99.4023 41.1977 100.011 41.3517 100.628 41.3485C101.792 41.3485 102.642 40.8115 103.201 39.7375C103.738 38.6635 104.029 36.9854 104.029 34.7256V32.3091C104.029 30.6086 103.917 29.2662 103.716 28.3041V28.3041ZM100.561 34.5466C100.561 35.6653 100.516 36.5379 100.427 37.1644C100.337 37.7909 100.181 38.2384 99.957 38.5069C99.7333 38.7754 99.4424 38.9096 99.0844 38.9096C98.7936 38.9096 98.5474 38.8425 98.3013 38.7083C98.0552 38.574 97.8762 38.3726 97.7196 38.1041V29.4228C97.8315 28.9977 98.0328 28.6621 98.3237 28.3936C98.6146 28.1251 98.9054 27.9908 99.2411 27.9908C99.5991 27.9908 99.8675 28.1251 100.047 28.3936C100.248 28.6621 100.36 29.1319 100.449 29.7808C100.516 30.4296 100.561 31.347 100.561 32.5552V34.5466Z" fill="#282828"/>
</svg>
