<svg width="513" height="117" viewBox="0 0 513 117" fill="none" xmlns="http://www.w3.org/2000/svg">
<g clip-path="url(#clip0_30_7)">
<path d="M160.539 18.3537C158.63 11.3011 153.121 5.79186 146.068 3.88345C133.381 0.423172 82.3154 0.423172 82.3154 0.423172C82.3154 0.423172 31.2501 0.528029 18.5624 3.9883C11.5098 5.89672 6.00059 11.4059 4.09217 18.4585C0.254412 41.0028 -1.23456 75.3539 4.19703 96.9963C6.10544 104.049 11.6147 109.558 18.6673 111.467C31.355 114.927 82.4202 114.927 82.4202 114.927C82.4202 114.927 133.486 114.927 146.173 111.467C153.226 109.558 158.735 104.049 160.643 96.9963C164.691 74.4207 165.939 40.0905 160.539 18.3537Z" fill="#FF0000"/>
<path d="M66.0626 82.2115L108.425 57.675L66.0626 33.1385V82.2115Z" fill="white"/>
<path d="M491.886 33.6628C497.444 33.6628 501.638 34.7114 504.574 36.7036C507.51 38.6959 509.607 41.8416 510.865 46.1408C512.124 50.4399 512.648 56.3119 512.648 63.8616V76.1298H485.7V79.9047L486.119 90.2855C486.434 92.5924 486.958 94.2701 487.797 95.3186C488.636 96.3672 489.999 96.8915 491.781 96.8915C494.193 96.8915 495.871 95.9478 496.71 94.0603C497.653 92.1729 498.073 89.0272 498.178 84.7281L512.124 85.5669C512.228 86.1961 512.228 87.0349 512.228 88.0835C512.228 94.6895 510.446 99.6178 506.776 102.868C503.106 106.119 498.073 107.797 491.467 107.797C483.498 107.797 477.94 105.28 474.795 100.352C471.649 95.4235 469.971 87.6641 469.971 77.2832V64.5956C470.328 46.7699 473.463 33.7152 491.886 33.6628ZM298.006 35.0259V87.5592C298.006 90.7049 298.32 93.0118 299.054 94.3749C300.543 97.2899 304.402 96.5455 306.499 95.1089C307.71 94.2905 308.686 93.17 309.33 91.8584V35.0259H325.374V106.643H312.791L311.428 97.8352H311.113C307.653 104.441 302.515 107.797 295.699 107.797C285.209 107.77 282.643 100.213 282.032 92.5369L281.992 91.995C281.912 90.8208 281.874 89.648 281.858 88.5029V35.0259H298.006ZM380.738 35.0259V87.5592C380.738 90.7049 381.053 93.0118 381.787 94.3749C383.275 97.2899 387.134 96.5455 389.231 95.1089C390.442 94.2905 391.418 93.17 392.062 91.8584V35.0259H408.106V106.643H395.523L394.16 97.8352H393.845C390.385 104.441 385.247 107.797 378.431 107.797C367.941 107.77 365.375 100.213 364.764 92.5369L364.724 91.995C364.644 90.8208 364.606 89.648 364.59 88.5029V35.0259H380.738ZM251.449 33.6628C256.692 33.6628 260.991 34.7114 264.137 36.9134C267.283 39.1154 269.695 42.4708 271.163 47.0845C272.631 51.6982 273.365 57.8847 273.365 65.5393V75.9201C273.365 83.5747 272.631 89.6564 271.163 94.2701C269.695 98.8838 267.388 102.239 264.137 104.441C260.887 106.538 256.483 107.692 251.03 107.692C245.368 107.797 240.964 106.643 237.713 104.546C234.463 102.344 232.156 98.9886 230.793 94.3749C229.43 89.7612 228.8 83.6795 228.8 76.025V65.6441C228.8 57.9896 229.534 51.6982 231.107 47.0845C232.68 42.3659 235.092 39.0105 238.447 36.9134C241.803 34.8162 246.102 33.6628 251.449 33.6628ZM433.271 4.93202V42.6805H433.376C434.844 39.9542 436.732 37.7522 439.353 36.0745C441.801 34.4279 444.686 33.5515 447.637 33.5579C451.516 33.5579 454.452 34.6065 456.654 36.5988C458.856 38.6959 460.429 41.9465 461.373 46.4553C462.287 50.8233 462.808 56.8641 462.839 64.4825L462.841 65.2247V76.5493C462.841 87.1398 461.478 95.0041 458.961 100.037C456.34 105.07 452.355 107.587 446.903 107.587C443.862 107.587 441.136 106.853 438.619 105.49C436.392 104.192 434.547 102.331 433.269 100.098L433.062 99.7226H432.747L431.069 106.538H417.752V4.93202H433.271ZM369.099 8.60201V21.6043H353.161V106.643H337.432V21.6043H321.389V8.60201H369.099ZM196.19 8.60201L196.199 8.64149C196.352 9.32348 198.473 18.7486 200.804 29.7289L200.988 30.5989C201.081 31.0354 201.174 31.474 201.266 31.9143L201.452 32.797C201.483 32.9444 201.514 33.092 201.545 33.2397L201.731 34.1277C201.762 34.2759 201.793 34.4243 201.824 34.5727L202.01 35.4641L202.28 36.767C203.854 44.3708 205.357 51.997 206.256 57.4653H206.676C207.538 52.5599 208.788 46.2827 210.123 39.8741L210.472 38.2001C210.648 37.3624 210.825 36.5244 211.002 35.6886L211.277 34.3909C213.844 22.3176 216.398 11.0387 216.873 8.9475L216.904 8.81245C216.935 8.67384 216.952 8.60201 216.952 8.60201H232.995L214.435 74.7667V106.538H198.602V74.8715H198.497L180.147 8.60201H196.19ZM251.135 44.7776C248.933 44.7776 247.465 45.9311 246.521 48.3428C245.577 50.7545 245.158 54.4245 245.158 59.5624V81.8969C245.158 87.1398 245.577 91.0195 246.416 93.3263C247.255 95.6332 248.828 96.7866 251.135 96.7866C253.337 96.7866 254.91 95.6332 255.853 93.3263C256.797 91.0195 257.217 87.1398 257.217 81.8969V59.5624C257.217 54.4245 256.797 50.6496 255.853 48.3428C254.91 45.9311 253.337 44.7776 251.135 44.7776ZM436.102 46.8748C434.824 48.0544 433.915 49.5105 433.374 51.3295L433.271 51.6982V92.3826C434.571 94.5846 436.417 96.0526 439.668 96.1575C441.345 96.1575 442.708 95.5283 443.757 94.2701C444.805 93.0118 445.539 90.9146 445.959 87.9787C446.362 85.1601 446.571 81.2785 446.587 76.334L446.588 75.7104V66.3781C446.588 60.7159 446.378 56.4167 446.064 53.3759C445.644 50.335 445.12 48.133 444.176 46.8748C442.352 44.2533 438.409 44.2848 436.102 46.8748ZM491.572 44.4631C489.789 44.5679 488.531 45.0922 487.797 46.0359C486.958 47.0845 486.434 48.6573 486.119 50.9642C485.811 53.2249 485.704 61.1251 485.7 61.4402L485.7 66.5879H497.444L497.443 62.048L497.443 62.1354C497.437 63.7226 497.404 61.2141 497.331 58.1351L497.321 57.7215C497.255 55.0151 497.159 51.9978 497.024 50.9642C496.71 48.5525 496.185 46.8748 495.346 45.9311C494.508 44.9873 493.249 44.4631 491.572 44.4631Z" fill="white"/>
</g>
<defs>
<clipPath id="clip0_30_7">
<rect width="512" height="116" fill="white" transform="translate(0.649452 0.423172)"/>
</clipPath>
</defs>
</svg>
